<mxfile host="app.diagrams.net" modified="2023-09-19T16:51:46.412Z" agent="Mozilla/5.0 (Macintosh; Intel Mac OS X 10_15_7) AppleWebKit/537.36 (KHTML, like Gecko) Chrome/116.0.0.0 Safari/537.36" version="21.7.4" etag="y-wDtR-zNbdeO5ZrcOEK" type="github">
  <diagram name="Page-1" id="ZHyjCtLeHV8MENFR5CEA">
    <mxGraphModel>
      <root>
        <mxCell id="0" />
        <mxCell id="1" parent="0" />
      </root>
    </mxGraphModel>
  </diagram>
</mxfile>
